<svg width="64" height="64" viewBox="0 0 64 64" fill="none" xmlns="http://www.w3.org/2000/svg">
<path d="M58.1818 29.0909V23.2727H52.3636V17.4545H46.5455V11.6364H40.7273V5.81818H34.9091V0H29.0909V5.81818H23.2727V11.6364H17.4545V17.4545H11.6364V23.2727H5.81818V29.0909H0V34.9091H5.81818V40.7273H11.6364V46.5455H17.4545V52.3636H23.2727V58.1818H29.0909V64H34.9091V58.1818H40.7273V52.3636H46.5455V46.5455H52.3636V40.7273H58.1818V34.9091H64V29.0909H58.1818Z" fill="#E9FC9E"/>
<path d="M45.0909 30.7506H36.6628L43.9607 26.5365L42.7113 24.3727L35.4133 28.5867L39.6274 21.2888L37.4636 20.0393L33.2495 27.3373V18.9091H30.7506V27.3373L26.5365 20.0393L24.3727 21.2888L28.5867 28.5867L21.2888 24.3727L20.0393 26.5365L27.3373 30.7506H18.9091V33.2495H27.3373L20.0393 37.4636L21.2888 39.6274L28.5867 35.4133L24.3727 42.7113L26.5365 43.9607L30.7506 36.6628V45.0909H33.2495V36.6628L37.4636 43.9607L39.6274 42.7113L35.4133 35.4133L42.7113 39.6274L43.9607 37.4636L36.6628 33.2495H45.0909V30.7506Z" fill="#110346"/>
</svg>
