<svg width="1440" height="182" viewBox="0 0 1440 182" fill="none" xmlns="http://www.w3.org/2000/svg">
<path d="M433.359 84.0069C424.709 84.0069 416.016 84.0506 407.366 83.9632C405.88 83.9632 405.313 84.3564 405.356 85.9291C405.444 89.1181 405.269 92.3508 405.444 95.5398C405.531 97.4183 405.05 98.1173 403.041 98.0299C399.939 97.8552 396.794 98.0736 393.649 97.9425C391.77 97.8552 391.29 98.5541 391.377 100.302C391.508 103.578 391.333 106.854 391.421 110.131C391.464 111.572 390.94 112.009 389.542 111.966C386.135 111.878 382.684 111.878 379.276 111.966C377.835 112.009 377.354 111.529 377.398 110.087C377.485 106.68 377.354 103.228 377.441 99.821C377.485 98.3794 377.004 97.8989 375.563 97.9425C372.199 98.0299 368.879 97.8989 365.515 97.9862C363.899 98.0299 363.331 97.5931 363.375 95.933C363.506 92.875 363.418 89.8171 363.418 86.7591C363.418 84.0069 363.418 84.0069 360.535 84.0069C352.89 84.0069 345.245 83.9632 337.6 84.0506C335.809 84.0506 335.372 83.4827 335.416 81.8226C335.547 78.4589 335.416 75.1388 335.46 71.775C335.503 70.4208 334.979 70.0276 333.669 70.0276C330.174 70.115 326.679 70.115 323.184 70.0276C321.83 69.9839 321.437 70.4645 321.437 71.775C321.48 79.9442 321.48 88.0697 321.437 96.2388C321.437 97.5494 321.874 98.0299 323.184 97.9862C326.592 97.8989 330.043 98.0299 333.45 97.9425C334.935 97.8989 335.503 98.3357 335.46 99.9084C335.372 103.097 335.547 106.33 335.372 109.519C335.285 111.398 335.766 112.097 337.775 112.009C340.964 111.834 344.197 112.009 347.386 111.922C348.827 111.878 349.439 112.228 349.439 113.844C349.395 126.6 349.395 139.313 349.439 152.069C349.439 153.51 348.958 153.947 347.561 153.947C344.153 153.86 340.702 153.991 337.295 153.903C335.853 153.86 335.372 154.34 335.416 155.782C335.503 159.189 335.372 162.641 335.46 166.048C335.503 167.446 335.067 167.97 333.625 167.926C330.48 167.839 327.378 167.883 324.233 167.883C321.48 167.883 321.48 167.883 321.48 170.766C321.48 173.824 321.437 176.882 321.524 179.94C321.568 181.294 321.218 181.862 319.733 181.862C302.259 181.818 284.785 181.818 267.311 181.862C265.956 181.862 265.563 181.382 265.563 180.071C265.607 171.989 265.607 163.907 265.563 155.826C265.563 154.253 266.087 153.86 267.573 153.86C275.523 153.903 283.43 153.816 291.381 153.903C293.129 153.903 293.609 153.379 293.565 151.676C293.478 139.138 293.478 126.644 293.565 114.106C293.565 112.402 293.129 111.878 291.381 111.878C283.518 111.966 275.654 111.878 267.791 111.922C266.087 111.922 265.476 111.529 265.563 109.738C265.694 106.636 265.519 103.491 265.651 100.345C265.738 98.4668 265.301 97.7241 263.248 97.8552C260.059 98.0299 256.826 97.8552 253.637 97.9425C252.195 97.9862 251.54 97.6367 251.584 96.0204C251.671 92.6129 251.671 89.1618 251.584 85.7543C251.54 84.269 252.108 83.8759 253.506 83.9195C256.87 84.0069 260.19 83.8759 263.554 83.9632C265.257 84.0069 265.651 83.3953 265.607 81.8226C265.563 73.9593 265.651 66.0959 265.563 58.2326C265.563 56.3978 266.087 55.8299 267.878 55.9172C271.068 56.0483 274.3 55.8736 277.489 56.0046C279.106 56.0483 279.586 55.5678 279.586 53.9077C279.499 45.0833 279.542 36.3025 279.542 27.4781C279.542 19.2652 279.63 11.0087 279.499 2.79586C279.455 0.611595 280.023 0 282.251 0C337.426 0.0436853 392.6 0.0436853 447.775 0.0436853C455.988 0.0436853 464.244 0.0436853 472.457 0.0436853C475.253 0.0436853 475.253 0.0436853 475.253 2.92692C475.253 5.85384 475.384 8.73707 475.209 11.664C475.078 13.6735 475.821 14.1104 477.699 14.0667C480.845 13.9356 483.946 14.1104 487.092 13.9793C488.883 13.8919 489.276 14.5472 489.276 16.2073C489.232 28.5702 489.276 40.9332 489.188 53.3398C489.188 55.4367 489.669 56.1357 491.81 56.0046C494.999 55.8299 498.231 56.0046 501.42 55.9172C502.731 55.8736 503.211 56.2667 503.211 57.621C503.168 75.0951 503.168 92.5692 503.211 110C503.211 111.529 502.644 111.791 501.289 111.791C493.513 111.747 485.694 111.878 477.918 111.703C475.602 111.66 475.165 112.402 475.209 114.543C475.34 122.188 475.209 129.833 475.296 137.478C475.34 139.313 474.729 139.837 472.937 139.793C469.661 139.662 466.385 139.837 463.108 139.749C461.667 139.706 461.23 140.23 461.274 141.628C461.361 144.992 461.405 148.312 461.274 151.676C461.23 153.336 461.798 153.772 463.414 153.729C471.277 153.685 479.141 153.772 487.004 153.685C488.839 153.685 489.319 154.209 489.319 156C489.232 163.864 489.232 171.727 489.319 179.59C489.319 181.25 488.839 181.687 487.223 181.687C474.641 181.644 462.016 181.644 449.435 181.687C447.862 181.687 447.251 181.294 447.294 179.634C447.425 176.445 447.251 173.212 447.382 170.023C447.469 168.232 446.988 167.621 445.11 167.664C437.334 167.752 429.514 167.621 421.738 167.708C419.991 167.708 419.379 167.315 419.379 165.436C419.423 143.594 419.467 121.751 419.379 99.9521C419.379 98.1173 419.991 97.7241 421.651 97.8115C424.927 97.8988 428.204 97.7678 431.48 97.8552C433.053 97.8989 433.49 97.3309 433.446 95.8456C433.315 92.0013 433.359 87.9823 433.359 84.0069C437.421 84.0069 441.484 83.9632 445.547 84.0069C446.814 84.0069 447.382 83.7011 447.338 82.3032C447.251 78.7647 447.294 75.1825 447.338 71.644C447.338 70.4208 446.945 69.9839 445.678 69.9839C442.183 70.0276 438.732 70.0713 435.237 69.9839C433.621 69.9402 433.271 70.5518 433.315 72.0371C433.402 76.0125 433.359 79.9879 433.359 84.0069ZM384.649 14.1104C369.01 14.1104 353.371 14.1104 337.731 14.0667C336.071 14.0667 335.46 14.4162 335.46 16.2509C335.547 24.1143 335.547 31.9777 335.46 39.841C335.416 41.7632 336.115 42.1564 337.862 42.1127C341.051 41.9816 344.284 42.1564 347.473 42.0253C349.133 41.9816 349.57 42.5495 349.526 44.1659C349.439 52.0292 349.57 59.8926 349.439 67.756C349.439 69.5471 349.92 70.0713 351.754 70.0713C368.835 70.0276 385.96 69.9839 403.041 70.115C405.05 70.115 405.444 69.4597 405.4 67.6249C405.313 59.8489 405.4 52.0729 405.313 44.2533C405.313 42.4622 405.881 42.069 407.541 42.069C415.404 42.1564 423.267 42.0253 431.131 42.1127C432.878 42.1127 433.359 41.5884 433.315 39.8847C433.228 32.1087 433.184 24.3327 433.315 16.5131C433.359 14.5472 432.791 14.0667 430.869 14.1104C415.535 14.1541 400.114 14.1104 384.649 14.1104Z" fill="#FAFFE4" style="mix-blend-mode:difference"/>
<path d="M28.0023 167.839C19.3963 167.839 10.834 167.795 2.22795 167.883C0.524224 167.883 0 167.402 0 165.699C0.0873707 157.748 0.0873707 149.841 0 141.89C0 140.405 0.393168 139.837 1.96584 139.88C5.24224 139.968 8.51864 139.837 11.795 139.924C13.4551 139.968 14.1104 139.575 14.0667 137.74C13.9356 134.551 14.1541 131.318 13.9793 128.129C13.8919 126.251 14.5909 125.77 16.3383 125.857C19.6147 125.989 22.8911 125.814 26.1675 125.901C27.6528 125.945 28.0023 125.421 28.0023 124.023C27.9586 101.962 27.9586 79.9005 28.0023 57.8831C28.0023 56.4415 27.5218 56.0046 26.1238 56.0483C22.7164 56.1357 19.2652 56.0046 15.8578 56.092C14.4162 56.1357 13.9356 55.6552 13.9793 54.2135C14.0667 50.8498 13.9356 47.5297 14.023 44.1659C14.0667 42.5932 13.6298 41.9816 11.9698 42.0253C8.60601 42.1564 5.28593 42.0253 1.92216 42.069C0.524224 42.1127 0 41.7195 0 40.2342C0.0436853 32.0651 0.0436853 23.9396 0 15.7704C0 14.4162 0.524224 14.023 1.7911 14.0667C5.19856 14.1104 8.6497 14.023 12.0572 14.1104C13.6298 14.1541 14.0667 13.5862 14.023 12.1009C13.9356 8.91183 14.1104 5.67912 13.9356 2.49009C13.8483 0.567931 14.5035 0.0873924 16.4257 0.0873924C39.011 0.174763 61.5527 0.131078 84.138 0.131078C88.0697 0.131078 92.0013 0.174763 95.933 0.0873924C97.4183 0.043707 97.9862 0.48056 97.9425 2.05323C97.8552 5.46069 97.9425 8.91183 97.8989 12.3193C97.8552 13.6298 98.2483 14.1104 99.6463 14.1104C117.12 14.0667 134.595 14.0667 152.069 14.1104C153.554 14.1104 153.903 13.5425 153.903 12.1882C153.816 8.82446 153.947 5.50437 153.86 2.1406C153.816 0.698987 154.166 0.0873924 155.782 0.0873924C182.517 0.131078 209.209 0.131078 235.945 0.0873924C237.386 0.0873924 237.823 0.567931 237.823 1.96586C237.736 5.37332 237.867 8.82446 237.779 12.2319C237.736 13.6735 238.216 14.1541 239.658 14.1104C243.065 14.023 246.516 14.1541 249.924 14.0667C251.322 14.023 251.802 14.5036 251.802 15.9452C251.759 24.027 251.715 32.1087 251.802 40.1905C251.802 41.8069 251.234 42.1564 249.749 42.1127C246.473 42.0253 243.196 42.2001 239.92 42.0253C238.085 41.938 237.692 42.6369 237.736 44.297C237.823 47.6607 237.736 50.9808 237.779 54.3446C237.823 55.6988 237.299 56.1357 235.988 56.092C232.493 56.0046 228.999 56.1357 225.504 56.0483C224.193 56.0046 223.756 56.4852 223.756 57.7957C223.8 75.2699 223.8 92.744 223.713 110.174C223.713 111.703 224.324 112.009 225.678 111.966C228.868 111.878 232.1 112.053 235.289 111.922C237.168 111.835 237.779 112.315 237.779 114.325C237.648 122.101 237.779 129.92 237.736 137.696C237.736 139.356 238.085 140.012 239.92 139.968C243.196 139.837 246.473 139.968 249.749 139.88C251.191 139.837 251.802 140.23 251.802 141.803C251.715 149.884 251.759 157.966 251.802 166.048C251.802 167.49 251.322 167.926 249.88 167.883C246.473 167.795 243.022 167.926 239.614 167.839C238.216 167.795 237.692 168.276 237.736 169.718C237.823 172.994 237.648 176.27 237.779 179.547C237.867 181.338 237.342 181.906 235.464 181.906C220.305 181.818 205.19 181.862 190.031 181.862C187.978 181.862 185.969 181.775 183.915 181.906C182.343 181.993 181.687 181.556 181.775 179.853C181.906 176.707 181.687 173.606 181.862 170.46C181.949 168.538 181.469 167.839 179.372 167.883C171.858 168.014 164.388 167.926 156.874 167.926C153.903 167.926 153.903 167.926 153.903 164.825C153.903 161.854 153.816 158.84 153.947 155.869C153.991 154.297 153.423 153.86 151.938 153.903C148.53 153.991 145.079 153.86 141.672 153.947C140.317 153.991 139.88 153.51 139.924 152.156C140.012 148.792 140.055 145.472 139.924 142.108C139.837 140.361 140.405 139.88 142.152 139.924C155.389 139.968 168.669 139.968 181.906 139.968C181.906 143.987 181.949 147.962 181.862 151.981C181.818 153.467 182.255 154.035 183.828 153.991C186.799 153.903 189.813 153.947 192.783 153.947C196.278 153.947 195.885 153.641 195.885 157.136C195.885 160.107 195.929 163.121 195.885 166.092C195.841 167.359 196.147 167.926 197.589 167.926C205.802 167.883 214.014 167.883 222.271 167.926C223.494 167.926 223.931 167.49 223.887 166.266C223.844 162.772 223.8 159.277 223.887 155.782C223.931 154.34 223.451 153.86 222.009 153.903C218.733 153.991 215.456 153.816 212.18 153.947C210.127 154.035 209.296 153.467 209.384 151.282C209.559 148.224 209.34 145.166 209.471 142.108C209.559 140.317 208.947 139.924 207.243 139.924C198.812 140.012 190.381 139.924 181.906 139.924C181.906 135.992 181.862 132.061 181.949 128.129C181.993 126.425 181.513 125.857 179.765 125.901C171.989 125.989 164.17 125.901 156.394 125.989C154.559 126.032 153.86 125.639 153.903 123.63C154.035 115.766 153.991 107.903 153.947 100.039C153.947 98.4231 154.428 97.8989 156.044 97.9426C159.408 98.0736 162.728 97.8989 166.092 97.9863C167.49 98.0299 168.014 97.5494 167.97 96.1078C167.883 92.744 168.014 89.4239 167.926 86.0602C167.883 84.4875 168.32 83.8759 169.98 83.9196C173.125 84.0506 176.227 83.8322 179.372 84.0069C181.556 84.138 182.081 83.3517 181.993 81.2984C181.818 78.1968 182.037 75.0514 181.906 71.9061C181.862 70.3334 182.43 69.8966 183.915 69.9403C187.323 70.0276 190.774 69.8966 194.181 69.9839C195.536 70.0276 195.972 69.5471 195.929 68.2365C195.841 64.7417 195.929 61.2469 195.885 57.752C195.841 56.4415 196.278 55.9609 197.632 55.9609C201.127 56.0483 204.622 55.9609 208.117 56.0046C209.428 56.0483 209.908 55.6551 209.908 54.3009C209.864 41.5011 209.864 28.7013 209.908 15.8578C209.908 14.5909 209.559 14.023 208.204 14.0667C204.71 14.1541 201.215 14.1541 197.72 14.0667C196.235 14.023 195.885 14.6346 195.885 15.9889C195.972 19.1342 195.754 22.2795 195.972 25.3812C196.147 27.7402 195.273 28.1334 193.133 28.0897C185.488 27.9586 177.843 28.0897 170.198 28.0023C168.363 27.9586 167.839 28.5702 167.883 30.3613C168.014 33.6377 167.839 36.9141 167.926 40.1905C167.97 41.6322 167.446 42.069 166.048 42.069C162.772 41.9816 159.495 42.1564 156.219 42.0253C154.428 41.938 153.86 42.5059 153.903 44.3406C153.991 56.4415 153.947 68.4986 153.947 80.5995C153.947 84.5312 154.428 84.0069 150.409 84.0069C147.656 84.0506 144.861 84.138 142.108 83.9632C140.274 83.8759 139.88 84.5748 139.968 86.2349C140.055 89.5113 139.968 92.7877 140.012 96.0641C140.055 97.4183 139.749 98.0299 138.22 98.0299C130.051 97.9862 121.926 97.9862 113.757 98.0299C112.446 98.0299 111.966 97.6368 111.966 96.2825C112.053 92.9187 111.922 89.5987 112.009 86.2349C112.053 84.5748 111.66 83.9196 109.825 83.9632C106.767 84.0943 103.709 83.8322 100.651 84.0506C98.292 84.2254 97.9425 83.308 97.9425 81.2111C98.0299 68.9792 97.9425 56.7473 98.0299 44.5154C98.0299 42.4622 97.4183 41.8943 95.4525 41.9816C92.1761 42.1127 88.8997 41.9816 85.6233 42.0253C84.4001 42.069 83.9632 41.5885 83.9632 40.3653C84.0069 36.9578 83.9195 33.5067 84.0069 30.0992C84.0506 28.4829 83.5701 27.9586 81.91 28.0023C74.0467 28.0897 66.1833 27.9586 58.3199 28.046C56.5725 28.046 55.8736 27.6528 55.9609 25.7744C56.092 22.4543 55.9609 19.0905 56.0046 15.7267C56.0046 14.5472 55.6551 14.023 54.3883 14.023C50.8061 14.0667 47.2675 14.1104 43.6853 14.023C42.2437 14.0667 41.9379 14.6346 41.9379 15.9015C41.9816 28.7013 41.9816 41.5011 41.9379 54.3446C41.9379 55.7425 42.4622 56.092 43.729 56.0483C47.1365 56.0046 50.5876 56.092 53.9951 56.0046C55.5678 55.9609 56.0046 56.5289 55.9609 58.0142C55.8736 61.4216 56.0046 64.8728 55.9172 68.2802C55.8736 69.6345 56.3541 70.0713 57.6647 70.0276C61.0721 69.9403 64.5233 70.0713 67.9307 69.9839C69.4597 69.9403 69.9839 70.4208 69.9402 71.9498C69.8529 75.3136 69.9839 78.6336 69.8966 81.9974C69.8529 83.4827 70.2897 84.0506 71.8624 84.0069C75.0077 83.9196 78.1531 84.138 81.2547 83.9196C83.6137 83.7448 84.0943 84.6622 83.9632 86.7591C83.7885 89.8171 84.0069 92.8751 83.8759 95.933C83.7885 97.6368 84.4001 98.0299 86.0164 97.9863C89.3802 97.8989 92.7003 98.0299 96.0641 97.9426C97.5057 97.8989 97.9425 98.4231 97.8989 99.821C97.8115 103.228 97.9425 106.68 97.8552 110.087C97.8115 111.485 98.2483 112.009 99.69 111.966C103.097 111.878 106.549 112.009 109.956 111.922C111.354 111.878 111.878 112.315 111.834 113.757C111.747 117.033 111.66 120.309 111.834 123.586C111.966 125.639 111.136 125.945 109.301 125.945C97.1562 125.857 84.968 125.901 72.8235 125.901C69.8529 125.901 69.8529 125.901 69.8529 128.784C69.8529 131.842 69.7655 134.9 69.8966 137.958C69.9402 139.531 69.3723 139.968 67.887 139.924C64.5232 139.837 61.2032 139.968 57.8394 139.88C56.2667 139.837 55.8299 140.405 55.8736 141.89C55.9609 145.909 55.9172 149.884 55.9172 153.903C47.3112 153.903 38.6615 153.947 30.0555 153.903C28.4828 153.903 27.8713 154.297 27.9149 155.957C28.0897 159.845 28.0023 163.864 28.0023 167.839Z" fill="#FAFFE4" style="mix-blend-mode:difference"/>
<path d="M684.986 139.88C652.353 139.88 619.764 139.88 587.131 139.88C587.131 135.818 587.175 131.711 587.087 127.649C587.087 126.338 587.48 125.857 588.835 125.857C592.024 125.945 595.256 125.77 598.446 125.945C600.542 126.076 601.154 125.464 601.154 123.324C601.067 103.141 601.11 83.0022 601.11 62.8195C601.11 61.3779 600.979 59.8926 601.154 58.451C601.329 56.5725 600.804 55.8299 598.795 55.9609C595.737 56.1357 592.679 55.9172 589.621 56.0483C587.743 56.1357 587 55.6988 587.131 53.6456C587.306 50.4566 587.131 47.2239 587.218 44.0348C587.262 42.5932 586.913 41.9816 585.296 41.9816C577.214 42.069 569.133 42.0253 561.051 41.9816C559.609 41.9816 559.129 42.4185 559.172 43.8601C559.26 47.2239 559.129 50.5439 559.216 53.9077C559.26 55.5678 558.736 56.0046 557.119 56.0046C549.256 55.9172 541.392 56.0483 533.529 55.9609C531.738 55.9609 531.126 56.4415 531.214 58.2762C531.345 61.5526 531.214 64.829 531.301 68.1054C531.345 69.5034 530.908 70.0276 529.466 69.9839C526.19 69.8965 522.914 69.8529 519.637 69.9839C517.846 70.0713 517.278 69.5471 517.278 67.7123C517.365 54.5193 517.322 41.37 517.322 28.177C517.322 24.3764 517.453 20.6195 517.278 16.8189C517.191 14.6783 517.671 13.8046 519.987 13.9793C522.957 14.1977 525.972 13.8919 528.942 14.0667C530.952 14.1977 531.432 13.4551 531.345 11.5766C531.214 8.38759 531.345 5.15487 531.301 1.96584C531.257 0.65528 531.563 0 533.092 0C545.892 0.0436853 558.736 0.0436853 571.535 0C572.89 0 573.326 0.436853 573.283 1.74741C573.195 5.24224 573.283 8.73707 573.239 12.2319C573.195 13.5425 573.632 14.023 574.986 14.023C578.35 13.9356 581.67 14.0667 585.034 13.9793C586.694 13.9356 587.349 14.3725 587.262 16.1636C587.131 19.2216 587.393 22.2795 587.175 25.3375C587 27.6965 587.874 28.177 590.014 28.046C593.072 27.8712 596.13 28.0897 599.188 27.9586C600.848 27.8713 601.329 28.4828 601.241 30.0992C601.154 33.463 601.285 36.7831 601.198 40.1468C601.154 41.5884 601.678 41.9816 603.076 41.9816C625.137 41.9379 647.198 41.9379 669.259 41.9816C670.657 41.9816 671.182 41.5884 671.138 40.1468C671.051 36.7831 671.182 33.463 671.094 30.0992C671.051 28.4828 671.487 27.9149 673.147 27.9586C676.205 28.0897 679.263 27.8712 682.321 28.046C684.462 28.177 685.336 27.6528 685.161 25.3375C684.943 22.2795 685.205 19.2216 685.074 16.1636C684.986 14.3725 685.641 13.9356 687.345 13.9793C690.709 14.1104 694.029 13.9793 697.393 14.023C698.747 14.0667 699.184 13.5425 699.14 12.2319C699.097 8.73707 699.184 5.24224 699.097 1.74741C699.053 0.436853 699.533 0 700.844 0C713.644 0.0436853 726.487 0.0436853 739.287 0C740.816 0 741.122 0.611595 741.078 1.96584C740.991 5.24224 741.122 8.51864 741.034 11.795C740.991 13.4551 741.384 14.1541 743.219 14.0667C746.189 13.9356 749.204 14.023 752.174 14.023C755.057 14.023 755.057 14.023 755.057 16.8189C755.057 24.4638 755.145 32.1087 755.014 39.7537C754.97 41.5884 755.582 42.069 757.373 42.069C765.149 41.9816 772.968 41.9816 780.744 42.069C782.579 42.1127 783.06 41.5011 783.06 39.71C782.972 31.8466 783.06 23.9833 783.016 16.1199C783.016 14.5035 783.453 13.9356 785.113 14.023C788.477 14.1541 791.797 14.023 795.161 14.0667C796.559 14.1104 797.083 13.6735 797.039 12.1882C796.952 8.78076 797.083 5.32961 796.995 1.92216C796.952 0.524224 797.389 0 798.83 0C806.912 0.0436853 814.994 0.0873707 823.076 0C824.692 0 824.998 0.567909 824.998 2.05321C824.954 9.8292 825.085 17.6489 824.954 25.4249C824.91 27.5655 825.609 28.1334 827.663 28.046C830.764 27.8712 833.909 28.046 837.055 27.9586C838.409 27.9149 839.021 28.2644 838.977 29.7497C838.933 37.9189 838.933 46.0443 838.977 54.2135C838.977 55.5678 838.54 56.0046 837.23 55.9609C833.822 55.8736 830.371 56.0046 826.964 55.9172C825.435 55.8736 824.954 56.3978 824.998 57.8831C825.041 65.8338 824.954 73.7409 825.041 81.6916C825.041 83.439 824.561 83.9632 822.813 83.8759C819.45 83.7448 816.13 83.8759 812.766 83.8322C811.455 83.7885 810.975 84.2253 810.975 85.5796C811.018 98.3794 811.018 111.179 810.975 124.023C810.975 125.508 811.543 125.857 812.897 125.814C816.261 125.726 819.581 125.857 822.945 125.77C824.648 125.726 825.041 126.338 824.998 127.911C824.91 131.274 825.041 134.595 824.954 137.958C824.91 139.4 825.435 139.837 826.832 139.837C830.24 139.749 833.691 139.88 837.099 139.793C838.54 139.749 838.977 140.23 838.977 141.672C838.933 149.753 838.933 157.835 838.977 165.917C838.977 167.315 838.54 167.839 837.099 167.795C833.735 167.708 830.415 167.839 827.051 167.752C825.435 167.708 824.867 168.145 824.91 169.805C825.041 173.081 824.867 176.358 824.998 179.634C825.041 181.207 824.648 181.818 822.945 181.775C814.95 181.687 806.912 181.687 798.918 181.775C797.345 181.775 796.952 181.207 796.995 179.765C797.083 176.401 796.952 173.081 797.039 169.718C797.083 168.145 796.515 167.708 795.03 167.752C791.753 167.839 788.477 167.664 785.2 167.839C783.453 167.926 783.016 167.315 783.016 165.611C783.06 153.248 782.972 140.885 783.06 128.479C783.06 126.382 782.536 125.683 780.395 125.814C777.424 125.989 774.41 125.726 771.439 125.901C769.517 125.989 768.993 125.421 768.993 123.455C769.08 103.054 769.037 82.6964 769.037 62.2953C769.037 60.7663 768.993 59.2373 769.037 57.7083C769.08 56.4415 768.731 55.8736 767.333 55.9172C763.838 56.0046 760.343 56.0046 756.849 55.9172C755.363 55.8736 755.014 56.4851 755.014 57.8394C755.101 61.2032 754.97 64.5232 755.057 67.887C755.101 69.3286 754.795 69.9839 753.135 69.9402C749.728 69.8092 746.277 69.8529 742.869 69.9402C741.428 69.9839 740.991 69.4597 741.034 68.0618C741.122 64.698 740.991 61.3779 741.078 58.0141C741.122 56.3541 740.598 55.9172 738.981 55.9172C731.118 56.0046 723.255 55.8736 715.391 55.9609C713.6 55.9609 712.988 55.4804 713.076 53.6456C713.207 50.2818 713.076 46.9617 713.12 43.598C713.12 42.3748 712.726 41.9379 711.459 41.9379C703.247 41.9816 694.99 41.9816 686.777 41.9379C685.379 41.9379 685.074 42.5058 685.074 43.7727C685.117 47.0491 684.986 50.3255 685.117 53.6019C685.205 55.6114 684.506 56.092 682.627 56.0046C679.438 55.8736 676.205 56.0046 673.016 55.9609C671.662 55.9172 671.051 56.223 671.094 57.752C671.138 79.8568 671.138 102.005 671.094 124.11C671.094 125.464 671.618 125.857 672.885 125.814C676.293 125.77 679.744 125.857 683.151 125.77C684.724 125.726 685.161 126.294 685.117 127.78C684.943 131.886 684.986 135.861 684.986 139.88Z" fill="#FAFFE4" style="mix-blend-mode:difference"/>
<path d="M587.131 139.88C587.131 143.9 587.087 147.875 587.175 151.894C587.218 153.379 586.781 153.947 585.209 153.903C582.02 153.816 578.787 153.991 575.598 153.816C573.501 153.685 573.021 154.471 573.108 156.394C573.239 159.583 573.064 162.815 573.152 166.004C573.195 167.446 572.671 167.883 571.273 167.839C567.866 167.752 564.414 167.883 561.007 167.795C559.609 167.752 559.085 168.189 559.129 169.63C559.216 173.038 559.085 176.489 559.172 179.896C559.216 181.294 558.779 181.818 557.337 181.775C549.168 181.731 541.043 181.731 532.874 181.775C531.476 181.775 531.126 181.25 531.17 179.984C531.214 176.489 531.126 172.994 531.214 169.499C531.257 168.145 530.777 167.708 529.423 167.752C525.928 167.839 522.433 167.752 518.938 167.795C517.628 167.839 517.147 167.402 517.147 166.048C517.191 148.574 517.191 131.143 517.147 113.669C517.147 112.184 517.671 111.834 519.069 111.834C527.151 111.878 535.233 111.878 543.314 111.834C544.756 111.834 545.237 112.271 545.193 113.713C545.106 117.12 545.237 120.572 545.149 123.979C545.106 125.377 545.542 125.901 546.984 125.857C550.391 125.77 553.843 125.901 557.25 125.814C558.823 125.77 559.26 126.338 559.216 127.823C559.129 131.187 559.26 134.507 559.172 137.871C559.129 139.444 559.653 139.837 561.182 139.837C569.831 139.837 578.481 139.88 587.131 139.88Z" fill="#FAFFE4" style="mix-blend-mode:difference"/>
<path d="M684.986 139.881C693.592 139.881 702.155 139.837 710.761 139.881C712.464 139.881 713.076 139.444 712.989 137.696C712.858 134.595 713.076 131.449 712.901 128.304C712.814 126.425 713.338 125.814 715.304 125.814C722.993 125.945 730.725 125.77 738.457 125.901C740.554 125.945 741.035 125.246 740.947 123.324C740.816 120.135 740.991 116.902 740.86 113.713C740.816 112.271 741.384 111.835 742.738 111.878C746.015 111.966 749.291 112.009 752.567 111.878C754.359 111.791 754.926 112.315 754.926 114.15C754.839 127.387 754.883 140.623 754.883 153.86C754.883 157.879 754.795 161.854 754.926 165.873C754.97 167.446 754.402 167.883 752.917 167.839C749.51 167.752 746.058 167.839 742.651 167.795C741.34 167.752 740.86 168.189 740.86 169.543C740.947 173.038 740.86 176.533 740.904 180.027C740.947 181.294 740.554 181.818 739.2 181.818C731.031 181.775 722.905 181.775 714.736 181.818C713.251 181.818 712.858 181.294 712.901 179.896C712.989 176.489 712.858 173.038 712.945 169.63C712.989 168.189 712.464 167.752 711.066 167.795C707.659 167.883 704.208 167.752 700.8 167.839C699.402 167.883 698.878 167.446 698.922 166.004C699.009 162.815 698.835 159.583 698.966 156.394C699.053 154.471 698.572 153.685 696.476 153.816C693.287 153.991 690.054 153.772 686.865 153.904C685.292 153.947 684.899 153.379 684.899 151.894C685.03 147.875 684.986 143.9 684.986 139.881Z" fill="#FAFFE4" style="mix-blend-mode:difference"/>
<path d="M55.9172 153.86C64.5233 153.86 73.0856 153.816 81.6916 153.86C83.3953 153.86 83.9632 153.423 83.9196 151.676C83.7885 148.355 83.9196 144.992 83.8759 141.628C83.8322 140.317 84.2253 139.837 85.6233 139.837C93.7924 139.88 101.918 139.88 110.087 139.837C111.572 139.837 111.922 140.361 111.922 141.759C111.834 145.166 111.834 148.618 111.922 152.025C111.966 153.467 111.441 153.903 110.043 153.86C106.636 153.772 103.185 153.903 99.7773 153.816C98.3357 153.772 97.8552 154.253 97.8989 155.695C97.9862 158.971 97.8115 162.247 97.9426 165.524C98.0299 167.315 97.5057 167.883 95.6272 167.883C87.8949 167.795 80.2063 167.926 72.474 167.839C70.5518 167.795 69.7655 168.232 69.8966 170.329C70.0713 173.518 69.8966 176.751 69.9839 179.94C70.0276 181.294 69.6781 181.862 68.1491 181.862C55.3493 181.818 42.5495 181.818 29.706 181.862C28.3518 181.862 27.9149 181.425 27.9586 180.115C28.046 176.052 28.0023 171.946 28.0023 167.883C36.6083 167.883 45.258 167.839 53.864 167.926C55.4367 167.926 56.0483 167.533 56.0046 165.873C55.8736 161.811 55.9609 157.835 55.9172 153.86Z" fill="#FAFFE4" style="mix-blend-mode:difference"/>
<path d="M908.655 167.839C921.848 167.839 934.998 167.795 948.191 167.883C950.113 167.883 950.724 167.359 950.637 165.436C950.462 162.16 950.637 158.884 950.55 155.607C950.506 154.297 950.943 153.816 952.297 153.816C955.661 153.903 958.981 153.772 962.345 153.86C964.005 153.903 964.704 153.51 964.616 151.676C964.485 148.399 964.616 145.123 964.529 141.846C964.485 140.405 964.835 139.793 966.451 139.793C974.533 139.88 982.615 139.837 990.696 139.793C991.92 139.793 992.575 140.055 992.531 141.453C992.444 145.035 992.444 148.574 992.531 152.156C992.575 153.598 991.92 153.86 990.696 153.816C987.333 153.772 984.013 153.86 980.649 153.772C979.076 153.729 978.464 154.166 978.508 155.826C978.639 159.015 978.421 162.247 978.596 165.436C978.727 167.49 977.94 167.883 976.105 167.795C972.916 167.664 969.684 167.839 966.495 167.708C964.922 167.664 964.485 168.232 964.529 169.718C964.616 173.125 964.485 176.576 964.573 179.984C964.616 181.338 964.092 181.731 962.781 181.731C945.307 181.687 927.833 181.687 910.359 181.731C909.048 181.731 908.568 181.294 908.612 179.984C908.699 175.965 908.655 171.902 908.655 167.839Z" fill="#FAFFE4" style="mix-blend-mode:difference"/>
<path d="M866.804 83.9632C875.41 83.9632 883.973 84.0069 892.579 83.9196C894.195 83.9196 894.763 84.3564 894.676 86.0165C894.545 89.2929 894.545 92.5693 894.676 95.8457C894.719 97.4183 894.326 98.0299 892.623 97.9862C889.477 97.8552 886.376 98.0736 883.23 97.8989C881.308 97.8115 880.522 98.2484 880.609 100.389C880.784 103.578 880.609 106.767 880.696 110C880.74 111.354 880.434 111.966 878.905 111.966C866.106 111.922 853.306 111.922 840.506 111.966C839.195 111.966 838.715 111.616 838.715 110.218C838.759 102.049 838.802 93.9235 838.715 85.7543C838.715 84.0506 839.501 83.9196 840.855 83.9196C849.505 84.0069 858.155 83.9632 866.804 83.9632Z" fill="#FAFFE4" style="mix-blend-mode:difference"/>
<path d="M1132.32 56.0483C1132.32 56.0483 1132.28 56.0483 1132.32 56.0483C1132.32 51.374 1132.32 46.7433 1132.32 42.069C1132.32 28.745 1132.28 15.4209 1132.32 2.1406C1132.32 0.655298 1131.93 0.043703 1130.36 0.131074C1128.79 0.26213 1127.17 0.174759 1125.55 0.174759C1100.83 0.174759 1076.06 0.174759 1051.33 0.174759C1048.45 0.174759 1048.45 0.174759 1048.45 3.14536C1048.45 6.07228 1048.32 8.95551 1048.49 11.8824C1048.58 13.7609 1047.88 14.1978 1046.13 14.1541C1038.27 14.0667 1030.41 14.1541 1022.54 14.1104C1020.88 14.1104 1020.4 14.5909 1020.45 16.2073C1020.58 19.6147 1020.45 23.0659 1020.49 26.4733C1020.49 27.6965 1020.05 28.1334 1018.83 28.1334C1015.25 28.0897 1011.71 28.0897 1008.13 28.1334C1006.9 28.1334 1006.47 27.6965 1006.47 26.4733C1006.51 23.1096 1006.38 19.7895 1006.51 16.4257C1006.6 14.5909 1006.03 14.0667 1004.19 14.1104C996.332 14.1978 988.468 14.1104 980.605 14.1541C979.032 14.1541 978.421 13.8046 978.464 12.1009C978.595 8.95551 978.377 5.85385 978.552 2.70851C978.639 0.742668 978.158 0.0873883 976.062 0.131074C967.543 0.26213 959.024 0.174759 950.506 0.174759C932.682 0.174759 914.858 0.174759 896.991 0.174759C895.768 0.174759 894.588 -0.0873531 894.588 1.92217C894.632 19.3963 894.632 36.8704 894.588 54.3009C894.588 55.6115 895.025 56.092 896.336 56.0483C899.743 55.9609 903.194 56.092 906.602 56.0046C908.087 55.9609 908.655 56.3978 908.611 57.9705C908.524 61.0284 908.568 64.0864 908.568 67.1444C908.568 70.0276 908.568 70.0276 911.538 70.0276C914.596 70.0276 917.654 70.0713 920.712 70.0276C921.979 69.9839 922.547 70.2897 922.547 71.7314C922.503 84.6185 922.503 97.5057 922.547 110.349C922.547 111.616 922.066 111.966 920.887 111.966C917.392 111.922 913.897 112.009 910.402 111.922C908.961 111.878 908.524 112.402 908.524 113.8C908.611 117.208 908.48 120.659 908.568 124.066C908.611 125.464 908.175 125.989 906.733 125.945C903.325 125.857 899.874 125.989 896.467 125.901C895.069 125.857 894.545 126.251 894.545 127.736C894.588 140.536 894.588 153.336 894.545 166.135C894.545 167.49 895.025 167.883 896.336 167.883C900.399 167.839 904.505 167.839 908.568 167.839C908.568 163.776 908.611 159.714 908.568 155.607C908.568 154.297 908.961 153.816 910.315 153.86C913.723 153.947 917.174 153.816 920.581 153.903C922.066 153.947 922.634 153.51 922.591 151.938C922.503 148.792 922.678 145.691 922.503 142.545C922.372 140.492 922.94 139.793 925.124 139.837C932.769 139.968 940.414 139.793 948.059 139.924C950.156 139.968 950.68 139.269 950.549 137.347C950.418 134.376 950.637 131.362 950.462 128.391C950.375 126.425 950.942 125.814 952.996 125.814C965.271 125.901 977.59 125.814 989.866 125.945C992.007 125.945 992.487 125.29 992.487 123.236C992.356 114.805 992.444 106.374 992.444 97.9426C1006.42 97.9426 1020.4 97.9426 1034.38 97.9426C1034.38 106.374 1034.47 114.805 1034.34 123.28C1034.29 125.333 1034.82 125.989 1036.96 125.989C1049.19 125.857 1061.42 125.989 1073.65 125.857C1075.97 125.814 1076.49 126.556 1076.36 128.697C1076.19 131.799 1076.36 134.944 1076.28 138.089C1076.23 139.531 1076.71 140.012 1078.15 139.968C1081.52 139.88 1084.84 140.012 1088.2 139.924C1089.82 139.88 1090.39 140.317 1090.34 141.977C1090.21 145.254 1090.39 148.53 1090.26 151.807C1090.21 153.423 1090.65 153.991 1092.31 153.947C1095.67 153.816 1098.99 153.947 1102.36 153.903C1103.71 153.86 1104.32 154.253 1104.28 155.738C1104.19 159.233 1104.19 162.728 1104.28 166.223C1104.32 167.621 1103.75 167.926 1102.49 167.926C1094.32 167.883 1086.19 167.883 1078.02 167.926C1076.67 167.926 1076.28 167.446 1076.32 166.135C1076.36 162.728 1076.28 159.277 1076.36 155.869C1076.41 154.297 1075.88 153.86 1074.35 153.903C1070.99 153.991 1067.67 153.86 1064.31 153.947C1062.82 153.991 1062.25 153.554 1062.3 151.981C1062.38 148.574 1062.3 145.123 1062.34 141.715C1062.38 140.448 1061.99 139.924 1060.64 139.924C1052.47 139.968 1044.34 139.968 1036.17 139.924C1034.69 139.924 1034.29 140.448 1034.34 141.846C1034.43 145.254 1034.43 148.705 1034.34 152.112C1034.29 153.51 1034.73 154.035 1036.22 153.991C1039.58 153.903 1042.9 154.035 1046.26 153.947C1047.84 153.903 1048.45 154.34 1048.4 156C1048.27 159.058 1048.49 162.116 1048.32 165.174C1048.19 167.315 1048.71 168.189 1051.03 168.014C1054.21 167.795 1057.45 168.014 1060.64 167.926C1061.99 167.883 1062.43 168.407 1062.38 169.718C1062.3 173.212 1062.43 176.707 1062.34 180.202C1062.3 181.556 1062.78 181.949 1064.09 181.949C1081.56 181.906 1099.04 181.906 1116.51 181.949C1118.04 181.949 1118.3 181.294 1118.3 179.984C1118.21 176.62 1118.34 173.3 1118.26 169.936C1118.21 168.451 1118.65 167.883 1120.22 167.926C1123.63 168.014 1127.08 167.926 1130.49 167.97C1131.76 167.97 1132.32 167.664 1132.32 166.266C1132.28 153.379 1132.28 140.492 1132.32 127.649C1132.32 126.425 1131.89 125.989 1130.66 126.032C1127.17 126.076 1123.67 125.989 1120.18 126.076C1118.78 126.12 1118.26 125.639 1118.3 124.197C1118.39 121.008 1118.21 117.776 1118.34 114.587C1118.43 112.665 1117.95 111.878 1115.85 112.009C1112.67 112.184 1109.43 112.009 1106.24 112.097C1104.89 112.14 1104.32 111.791 1104.32 110.306C1104.37 97.5057 1104.37 84.7059 1104.32 71.9061C1104.32 70.5518 1104.8 70.1587 1106.11 70.1587C1110.18 70.2024 1114.24 70.1587 1118.34 70.1587C1118.34 78.8084 1118.39 87.4581 1118.3 96.1078C1118.3 97.5931 1118.69 98.161 1120.27 98.1173C1123.54 98.0299 1126.82 98.161 1130.1 98.0736C1131.76 98.0299 1132.41 98.4231 1132.32 100.258C1132.19 103.36 1132.41 106.505 1132.24 109.65C1132.11 111.747 1132.94 112.228 1134.86 112.14C1138.05 112.009 1141.28 112.184 1144.47 112.053C1145.95 112.009 1146.35 112.533 1146.3 113.931C1146.22 117.339 1146.35 120.79 1146.26 124.197C1146.22 125.639 1146.74 126.076 1148.14 126.076C1151.55 125.989 1155 126.12 1158.4 126.032C1159.8 125.989 1160.33 126.425 1160.28 127.867C1160.2 131.143 1160.33 134.42 1160.24 137.696C1160.15 139.444 1160.63 140.143 1162.51 140.055C1165.57 139.924 1168.63 140.143 1171.68 139.968C1173.87 139.837 1174.31 140.623 1174.31 142.676C1174.17 150.234 1174.35 157.835 1174.22 165.393C1174.17 167.533 1174.87 168.058 1176.93 168.014C1184.66 167.883 1192.35 168.014 1200.08 167.926C1201.83 167.926 1202.35 168.451 1202.26 170.154C1202.13 173.3 1202.35 176.401 1202.18 179.547C1202.09 181.513 1202.74 181.993 1204.62 181.949C1217.82 181.862 1230.97 181.906 1244.16 181.906C1266.66 181.906 1289.15 181.862 1311.65 181.949C1313.57 181.949 1314.19 181.469 1314.1 179.503C1313.92 176.401 1314.14 173.256 1314.01 170.111C1313.92 168.363 1314.49 167.883 1316.24 167.883C1324.1 167.97 1331.97 167.883 1339.83 167.926C1341.49 167.926 1342.14 167.577 1342.1 165.742C1341.97 162.422 1342.1 159.058 1342.06 155.695C1342.01 154.428 1342.41 153.903 1343.76 153.903C1356.56 153.947 1369.4 153.947 1382.2 153.903C1383.69 153.903 1384.08 154.428 1384.04 155.826C1383.95 159.233 1384.08 162.684 1384 166.092C1383.95 167.533 1384.48 167.97 1385.87 167.926C1389.28 167.839 1392.73 167.97 1396.14 167.883C1397.58 167.839 1398.06 168.32 1398.02 169.761C1397.93 173.169 1398.06 176.62 1397.97 180.027C1397.93 181.425 1398.37 181.906 1399.85 181.906C1407.93 181.862 1416.02 181.818 1424.1 181.906C1425.71 181.906 1426.06 181.294 1426.02 179.853C1425.93 176.707 1426.15 173.606 1425.93 170.46C1425.8 168.276 1426.59 167.752 1428.64 167.839C1431.7 168.014 1434.76 167.795 1437.82 167.926C1439.61 168.014 1440 167.359 1440 165.699C1439.91 157.835 1439.91 149.972 1440 142.108C1440 140.317 1439.48 139.924 1437.77 139.924C1429.91 140.012 1422.05 139.88 1414.18 139.968C1412.43 139.968 1411.91 139.444 1412 137.74C1412.13 134.376 1412 131.056 1412.04 127.692C1412.08 126.338 1411.56 125.945 1410.25 125.945C1388.1 125.989 1366 125.989 1343.85 125.945C1342.32 125.945 1342.06 126.556 1342.06 127.911C1342.14 131.318 1342.06 134.769 1342.1 138.177C1342.14 139.487 1341.71 139.968 1340.35 139.968C1322.88 139.924 1305.41 139.924 1287.93 139.968C1286.45 139.968 1286.05 139.444 1286.1 138.046C1286.18 134.857 1285.97 131.624 1286.18 128.435C1286.31 126.338 1285.53 125.945 1283.61 125.945C1261.89 125.989 1240.23 125.945 1218.52 125.945C1209.21 125.945 1199.86 125.901 1190.56 125.989C1188.68 125.989 1188.2 125.421 1188.29 123.63C1188.42 120.79 1188.33 117.95 1188.33 115.111C1188.33 111.616 1187.98 111.966 1191.52 111.966C1217.64 111.966 1243.77 111.922 1269.93 112.009C1271.72 112.009 1272.38 111.572 1272.29 109.694C1272.16 106.418 1272.29 103.141 1272.2 99.8647C1272.16 98.4668 1272.6 97.9426 1274.04 97.9862C1277.23 98.0736 1280.46 97.8989 1283.65 98.0736C1285.57 98.161 1286.27 97.6805 1286.23 95.5836C1286.1 87.9386 1286.1 80.2937 1286.23 72.6488C1286.27 70.5082 1285.57 70.0276 1283.52 70.0276C1254.47 70.0713 1225.42 70.0713 1196.37 70.0713C1189.73 70.0713 1183.13 70.0276 1176.49 70.115C1174.74 70.1587 1174.22 69.5908 1174.31 67.887C1174.44 64.9601 1174.35 62.0769 1174.35 59.15C1174.35 56.092 1174.35 56.092 1177.41 56.092C1198.9 56.092 1220.35 56.0483 1241.84 56.1357C1243.72 56.1357 1244.42 55.6988 1244.29 53.733C1244.11 50.675 1244.38 47.617 1244.2 44.5591C1244.11 42.6369 1244.64 42.069 1246.6 42.1127C1259.8 42.2001 1272.95 42.1564 1286.14 42.1564C1308.64 42.1564 1331.14 42.2001 1353.63 42.1564C1355.47 42.1564 1356.21 42.5495 1356.12 44.5591C1355.95 47.7481 1356.12 50.9808 1356.04 54.1698C1355.99 55.6551 1356.39 56.2231 1357.96 56.1794C1375.3 56.1357 1392.6 56.1357 1409.94 56.1794C1411.65 56.1794 1412.04 55.6115 1412 54.0388C1411.91 50.8498 1412.08 47.617 1411.91 44.428C1411.82 42.5495 1412.52 42.069 1414.27 42.1564C1417.55 42.2874 1420.82 42.1564 1424.1 42.2001C1425.54 42.2437 1426.02 41.7632 1425.98 40.3216C1425.89 36.9141 1426.02 33.463 1425.93 30.0555C1425.89 28.6576 1426.33 28.1334 1427.77 28.1771C1431.18 28.2644 1434.63 28.1334 1438.03 28.2208C1439.43 28.2644 1439.96 27.8276 1439.91 26.386C1439.83 22.9785 1439.83 19.5274 1439.91 16.1199C1439.96 14.5036 1439.34 14.1541 1437.86 14.1978C1434.67 14.2851 1431.44 14.1104 1428.25 14.2851C1426.24 14.4162 1425.76 13.6735 1425.85 11.7951C1425.98 8.60603 1425.85 5.37331 1425.89 2.18428C1425.93 0.873725 1425.63 0.218444 1424.1 0.218444C1415.93 0.26213 1407.8 0.26213 1399.63 0.218444C1398.11 0.218444 1397.84 0.873725 1397.84 2.18428C1397.89 5.54806 1397.8 8.86814 1397.89 12.2319C1397.93 13.7172 1397.49 14.3288 1395.92 14.2414C1392.95 14.1104 1389.94 14.1978 1386.97 14.1978C1383.86 14.1978 1383.86 14.1978 1383.86 17.212C1383.86 20.27 1383.82 23.328 1383.86 26.386C1383.91 27.6092 1383.6 28.2208 1382.2 28.2208C1373.99 28.1771 1365.73 28.1771 1357.52 28.2208C1356.26 28.2208 1355.86 27.7839 1355.91 26.5607C1355.95 23.3717 1355.77 20.139 1355.99 16.9499C1356.12 14.6783 1355.38 14.1978 1353.2 14.1978C1340.88 14.2851 1328.6 14.1978 1316.28 14.2414C1314.45 14.2414 1313.88 13.7172 1313.97 11.9261C1314.1 8.73709 1313.92 5.50437 1314.06 2.31534C1314.1 0.655298 1313.57 0.218444 1311.96 0.218444C1303.35 0.305815 1294.79 0.26213 1286.18 0.26213C1254.38 0.26213 1222.58 0.305815 1190.73 0.218444C1188.77 0.218444 1188.07 0.655298 1188.15 2.75219C1188.33 5.94122 1188.15 9.17394 1188.24 12.363C1188.28 13.7609 1187.85 14.2851 1186.41 14.2414C1183.13 14.1541 1179.85 14.3288 1176.58 14.1541C1174.57 14.0667 1174.13 14.7657 1174.17 16.6441C1174.31 19.9205 1174.17 23.1969 1174.22 26.4733C1174.26 27.8276 1173.74 28.2644 1172.43 28.2208C1169.06 28.1334 1165.74 28.3081 1162.38 28.1771C1160.63 28.0897 1160.15 28.7013 1160.2 30.405C1160.28 38.2684 1160.15 46.1317 1160.24 53.9951C1160.24 55.7425 1159.76 56.2231 1158.01 56.1794C1149.49 55.9609 1140.89 56.0483 1132.32 56.0483ZM992.531 97.9426C988.512 97.9426 984.537 97.8989 980.517 97.9862C979.032 98.0299 978.464 97.5931 978.508 96.0204C978.595 92.8751 978.377 89.7734 978.595 86.6281C978.77 84.2691 977.896 83.7885 975.756 83.9196C972.654 84.0943 969.509 83.9196 966.363 84.0069C964.922 84.0506 964.485 83.5264 964.529 82.1285C964.616 78.721 964.485 75.2699 964.572 71.8624C964.616 70.4645 964.135 69.9403 962.694 69.9839C959.33 70.0713 956.01 69.9403 952.646 70.0276C951.074 70.0713 950.462 69.6781 950.506 67.9744C950.637 64.698 950.418 61.4216 950.593 58.1452C950.68 56.3104 949.981 55.9173 948.321 56.0046C944.958 56.092 941.638 56.0046 938.274 56.0483C936.92 56.092 936.483 55.5678 936.526 54.2572C936.614 50.8498 936.483 47.3986 936.57 43.9912C936.614 42.5059 936.133 41.938 934.604 41.9816C931.197 42.069 927.746 41.9816 924.338 42.0253C923.071 42.069 922.547 41.6758 922.547 40.3216C922.591 32.1961 922.591 24.027 922.547 15.9015C922.547 14.4162 923.071 14.0667 924.469 14.0667C932.551 14.1104 940.633 14.1104 948.715 14.0667C950.156 14.0667 950.593 14.5472 950.549 15.9452C950.462 19.3089 950.593 22.629 950.506 25.9928C950.462 27.6528 950.986 28.0897 952.603 28.0897C960.466 28.0023 968.329 28.1334 976.193 28.046C977.984 28.046 978.639 28.4829 978.552 30.3613C978.421 33.4193 978.595 36.4773 978.464 39.5353C978.377 41.4574 978.857 42.2874 980.954 42.1564C984.056 41.9816 987.201 42.2001 990.347 42.069C992.138 41.9816 992.531 42.6369 992.531 44.297C992.487 62.1643 992.487 80.0753 992.531 97.9426ZM1102.57 42.069C1099.17 42.0253 1095.72 42.1127 1092.31 42.0253C1090.74 41.9816 1090.3 42.5059 1090.34 44.0348C1090.43 47.3986 1090.3 50.7187 1090.39 54.0825C1090.43 55.5678 1089.95 56.1357 1088.42 56.092C1085.23 56.0046 1082 56.1794 1078.81 56.0046C1076.93 55.9173 1076.23 56.3978 1076.32 58.4073C1076.49 61.5964 1076.28 64.8291 1076.41 68.0181C1076.49 69.7218 1075.84 70.115 1074.27 70.0713C1070.9 69.9839 1067.58 70.115 1064.22 70.0276C1062.78 69.9839 1062.34 70.4645 1062.34 71.9061C1062.43 75.3135 1062.3 78.7647 1062.38 82.1721C1062.43 83.5701 1061.99 84.0943 1060.55 84.0506C1057.36 83.9632 1054.13 84.1817 1050.94 83.9632C1048.75 83.8322 1048.23 84.6185 1048.36 86.6717C1048.54 89.7734 1048.32 92.9187 1048.45 96.0641C1048.49 97.6368 1047.92 98.0736 1046.44 98.0299C1042.42 97.9426 1038.44 97.9862 1034.43 97.9862C1034.43 80.0753 1034.47 62.2079 1034.38 44.297C1034.38 42.6369 1034.73 41.9816 1036.57 42.0253C1039.75 42.1564 1042.99 41.9379 1046.18 42.1127C1048.06 42.2001 1048.54 41.5011 1048.45 39.7537C1048.32 36.5647 1048.49 33.3319 1048.36 30.1429C1048.32 28.4829 1048.89 28.046 1050.46 28.046C1058.32 28.1334 1066.18 28.0023 1074.05 28.0897C1075.84 28.0897 1076.45 27.6528 1076.41 25.7744C1076.28 22.4543 1076.41 19.0905 1076.36 15.7267C1076.36 14.5472 1076.71 14.0667 1077.98 14.0667C1086.19 14.1104 1094.41 14.1104 1102.66 14.0667C1104.06 14.0667 1104.37 14.6346 1104.37 15.9015C1104.32 24.027 1104.32 32.1961 1104.37 40.3216C1104.37 41.7195 1103.84 42.1127 1102.57 42.069Z" fill="#FAFFE4" style="mix-blend-mode:difference"/>
</svg>
