<svg width="36" height="36" viewBox="0 0 36 36" fill="none" xmlns="http://www.w3.org/2000/svg">
<path d="M36 16.282H24.4113L34.446 10.4876L32.728 7.51236L22.6933 13.3067L28.4876 3.27202L25.5124 1.55401L19.718 11.5887V0H16.282V11.5887L10.4876 1.55401L7.51236 3.27202L13.3067 13.3067L3.27202 7.51236L1.55401 10.4876L11.5887 16.282H0V19.718H11.5887L1.55401 25.5124L3.27202 28.4876L13.3067 22.6933L7.51236 32.728L10.4876 34.446L16.282 24.4113V36H19.718V24.4113L25.5124 34.446L28.4876 32.728L22.6933 22.6933L32.728 28.4876L34.446 25.5124L24.4113 19.718H36V16.282Z" fill="#110346"/>
</svg>
